Coordinates
version=1
nRows=54
nColumns=12
inDegrees=yes

Units are S.I. units (second, meters, Newtons, ...)
Angles are in degrees

endheader
time	SC_y	SC_z	SC_x	AC_y	AC_z	AC_x	GH_y	GH_z	GH_yy	EL_x	PS_y
       0.0              -46.54          38.68          2.084          64.85          -12.5         -3.617          94.49         -17.83          -45.8          90.59          125.2
    0.0323              -46.53          38.68          2.091          64.84          -12.5         -3.614          94.49         -17.82         -45.77          90.59          125.2
   0.06459              -46.53          38.68          2.099          64.84          -12.5         -3.612          94.49         -17.81         -45.73          90.59          125.2
   0.09689              -46.53          38.67          2.106          64.83         -12.49         -3.609          94.49          -17.8          -45.7          90.59          125.2
    0.1292              -46.52          38.67          2.115          64.83         -12.49         -3.606          94.49         -17.79         -45.66          90.59          125.2
    0.1615              -46.51          38.67          2.124          64.82         -12.49         -3.602          94.49         -17.77         -45.62          90.59          125.2
    0.1938              -46.51          38.66          2.133          64.81         -12.48         -3.599          94.49         -17.76         -45.58          90.58          125.2
    0.2261               -46.5          38.66          2.143          64.81         -12.48         -3.595          94.49         -17.75         -45.53          90.58          125.2
    0.2584              -46.49          38.65          2.154           64.8         -12.47         -3.591          94.49         -17.73         -45.48          90.58          125.2
    0.2907              -46.49          38.64          2.166          64.79         -12.47         -3.587          94.49         -17.72         -45.43          90.58          125.2
     0.323              -46.48          38.64          2.179          64.78         -12.46         -3.582          94.49          -17.7         -45.37          90.58          125.2
    0.3553              -46.47          38.63          2.192          64.78         -12.46         -3.577          94.49         -17.68         -45.31          90.58          125.2
    0.3876              -46.46          38.62          2.207          64.77         -12.45         -3.572          94.48         -17.67         -45.24          90.58          125.2
    0.4198              -46.45          38.62          2.222          64.76         -12.45         -3.566          94.48         -17.65         -45.17          90.58          125.2
    0.4521              -46.44          38.61           2.24          64.74         -12.44          -3.56          94.48         -17.62         -45.09          90.57          125.2
    0.4844              -46.43           38.6          2.258          64.73         -12.43         -3.553          94.48          -17.6         -45.01          90.57          125.2
    0.5167              -46.42          38.59          2.278          64.72         -12.42         -3.546          94.48         -17.57         -44.92          90.57          125.2
     0.549               -46.4          38.58            2.3           64.7         -12.42         -3.537          94.48         -17.54         -44.82          90.57          125.2
    0.5813              -46.39          38.57          2.324          64.69         -12.41         -3.529          94.47         -17.51         -44.71          90.57          125.2
    0.6136              -46.37          38.55           2.35          64.67          -12.4         -3.519          94.47         -17.48         -44.59          90.56          125.2
    0.6459              -46.35          38.54          2.379          64.65         -12.38         -3.509          94.47         -17.44         -44.46          90.56          125.2
    0.6782              -46.33          38.52           2.41          64.63         -12.37         -3.497          94.47          -17.4         -44.32          90.56          125.2
    0.7105              -46.31          38.51          2.445          64.61         -12.36         -3.484          94.46         -17.35         -44.16          90.55          125.2
    0.7428              -46.29          38.49          2.484          64.58         -12.34          -3.47          94.46          -17.3         -43.98          90.55          125.2
    0.7751              -46.26          38.47          2.527          64.55         -12.32         -3.454          94.46         -17.25         -43.79          90.54          125.2
    0.8074              -46.23          38.44          2.575          64.52          -12.3         -3.436          94.45         -17.19         -43.57          90.54          125.2
    0.8397               -46.2          38.41          2.629          64.48         -12.28         -3.417          94.45         -17.12         -43.33          90.53          125.2
     0.872              -46.16          38.38          2.689          64.44         -12.26         -3.394          94.44         -17.04         -43.05          90.53          125.2
    0.9043              -46.12          38.35          2.757           64.4         -12.23         -3.369          94.44         -16.95         -42.74          90.52          125.2
    0.9366              -46.07          38.31          2.835          64.35          -12.2         -3.341          94.43         -16.85         -42.39          90.51          125.2
    0.9689              -46.01          38.27          2.924          64.29         -12.16         -3.308          94.42         -16.73         -41.98          90.51          125.2
     1.001              -45.95          38.22          3.025          64.22         -12.12         -3.271          94.42          -16.6         -41.52           90.5          125.2
     1.033              -45.88          38.16          3.143          64.14         -12.08         -3.228          94.41         -16.45         -40.99          90.48          125.1
     1.066              -45.79          38.09          3.279          64.05         -12.02         -3.177          94.39         -16.27         -40.37          90.47          125.1
     1.098              -45.69          38.01          3.438          63.95         -11.96         -3.119          94.38         -16.06         -39.65          90.45          125.1
      1.13              -45.57          37.92          3.626          63.82         -11.88          -3.05          94.37         -15.82         -38.79          90.44          125.1
     1.163              -45.43          37.81           3.85          63.67         -11.79         -2.967          94.35         -15.53         -37.77          90.41          125.1
     1.195              -45.26          37.68          4.118          63.49         -11.68         -2.869          94.32         -15.18         -36.56          90.39          125.0
     1.227              -45.06          37.52          4.442          63.28         -11.55          -2.75           94.3         -14.75         -35.08          90.35          125.0
      1.26              -44.81          37.32          4.838          63.02         -11.39         -2.604          94.26         -14.24         -33.28          90.31          125.0
     1.292              -44.51          37.08          5.326          62.69          -11.2         -2.424          94.22          -13.6         -31.06          90.27          124.9
     1.324              -44.12          36.78          5.935          62.28         -10.95           -2.2          94.17         -12.81         -28.29           90.2          124.9
     1.356              -43.64           36.4          6.703          61.77         -10.64         -1.918          94.11         -11.81         -24.81          90.13          124.8
     1.389              -43.03          35.91          7.678          61.12         -10.25         -1.559          94.03         -10.54         -20.37          90.03          124.7
     1.421              -42.25          35.29          8.927          60.29          -9.75         -1.099          93.92         -8.912          -14.7          89.91          124.6
     1.453              -41.24           34.5          10.53          59.23         -9.105        -0.5098          93.79         -6.824         -7.411          89.75          124.4
     1.486              -39.96          33.48          12.58          57.87         -8.282         0.2433          93.62         -4.158          1.893          89.54          124.2
     1.518              -38.35          32.21          15.15          56.15         -7.247           1.19           93.4        -0.8057          13.59          89.29          123.9
      1.55              -36.38          30.65          18.29          54.07         -5.985          2.344          93.14           3.28          27.85          88.97          123.6
     1.583               -34.1          28.85          21.92          51.65         -4.523          3.682          92.83          8.015          44.38          88.61          123.2
     1.615              -31.63           26.9          25.86          49.03         -2.939           5.13           92.5          13.14          62.27          88.22          122.8
     1.647              -29.16          24.95           29.8          46.41         -1.356          6.578          92.18          18.27          80.16          87.82          122.4
     1.679              -26.89          23.14          33.43          43.99         0.1061          7.916          91.87          23.01          96.69          87.46          122.1
     1.712              -24.92          21.59          36.57           41.9          1.368           9.07          91.61          27.09          110.9          87.15          121.7
